<?xml version="1.0" encoding="UTF-8"?>
<svg id="Layer_1" data-name="Layer 1" xmlns="http://www.w3.org/2000/svg" viewBox="0 0 720 720">
  <defs>
    <style>
      .cls-1 {
        fill: #f8b518;
      }

      .cls-1, .cls-2, .cls-3, .cls-4, .cls-5, .cls-6, .cls-7, .cls-8 {
        fill-rule: evenodd;
      }

      .cls-2 {
        fill: none;
        stroke: #f8b518;
        stroke-miterlimit: 10;
        stroke-width: 12px;
      }

      .cls-9 {
        fill: #fff;
      }

      .cls-3 {
        fill: #fbfaf9;
      }

      .cls-4 {
        fill: #412d1e;
      }

      .cls-5 {
        fill: #fbfbfb;
      }

      .cls-6 {
        fill: #432d1e;
      }

      .cls-7 {
        fill: #fafbfa;
      }

      .cls-8, .cls-10 {
        fill: #432d1f;
      }

      .cls-10 {
        font-family: Montserrat-ExtraBold, Montserrat;
        font-size: 47.93px;
        font-weight: 700;
      }
    </style>
  </defs>
  <path class="cls-2" d="M344.72,50.71c112.82-2.05,202.9,41.68,270.23,131.17,49.29,72.39,65.9,151.81,49.81,238.27-23.93,105.55-85.22,180.41-183.89,224.57-94.52,37.67-186.39,32.14-275.63-16.6-94.49-56.42-146.37-139.86-155.66-250.31-4.11-111.73,38.09-201.26,126.61-268.57,50.58-35.52,106.76-55.03,168.53-58.53Z"/>
  <text class="cls-10" transform="translate(115.2 403.09) rotate(-98.66)"><tspan x="0" y="0">I</tspan></text>
  <text class="cls-10" transform="translate(111.86 389.67) rotate(-91.37)"><tspan x="0" y="0">N</tspan></text>
  <text class="cls-10" transform="translate(111.05 353.27) rotate(-85.3)"><tspan x="0" y="0">T</tspan></text>
  <text class="cls-10" transform="translate(113.15 325.19) rotate(-79.07)"><tspan x="0" y="0">E</tspan></text>
  <text class="cls-10" transform="translate(118.48 296.03) rotate(-71.69)"><tspan x="0" y="0">R</tspan></text>
  <text class="cls-10" transform="translate(128.39 264.99) rotate(-63.18)"><tspan x="0" y="0">N</tspan></text>
  <text class="cls-10" transform="translate(144.35 233.05) rotate(-54.49)"><tspan x="0" y="0">A</tspan></text>
  <text class="cls-10" transform="translate(163.82 205.76) rotate(-47.62)"><tspan x="0" y="0">T</tspan></text>
  <text class="cls-10" transform="translate(183.29 184.75) rotate(-43.1)"><tspan x="0" y="0">I</tspan></text>
  <text class="cls-10" transform="translate(193.35 174.52) rotate(-38.09)"><tspan x="0" y="0">O</tspan></text>
  <text class="cls-10" transform="translate(222.86 151.75) rotate(-28.29)"><tspan x="0" y="0">N</tspan></text>
  <text class="cls-10" transform="translate(254.38 134.59) rotate(-20.32)"><tspan x="0" y="0">A</tspan></text>
  <text class="cls-10" transform="translate(287.39 122.48) rotate(-13.28)"><tspan x="0" y="0">L</tspan></text>
  <text class="cls-10" transform="translate(314.2 116.39) rotate(-8.89)"><tspan x="0" y="0"> </tspan></text>
  <text class="cls-10" transform="translate(326 113.94) rotate(-3.87)"><tspan x="0" y="0">A</tspan></text>
  <text class="cls-10" transform="translate(360.62 111.91) rotate(4.85)"><tspan x="0" y="0">N</tspan></text>
  <text class="cls-10" transform="translate(396.59 114.81) rotate(12.15)"><tspan x="0" y="0">G</tspan></text>
  <text class="cls-10" transform="translate(430.2 122.1) rotate(19.18)"><tspan x="0" y="0">L</tspan></text>
  <text class="cls-10" transform="translate(455.92 131.25) rotate(24.19)"><tspan x="0" y="0">I</tspan></text>
  <text class="cls-10" transform="translate(469.04 136.51) rotate(29.96)"><tspan x="0" y="0">C</tspan></text>
  <text class="cls-10" transform="translate(497 152.29) rotate(37.82)"><tspan x="0" y="0">A</tspan></text>
  <text class="cls-10" transform="translate(524.76 173.63) rotate(45.51)"><tspan x="0" y="0">N</tspan></text>
  <text class="cls-10" transform="translate(550.19 200.16) rotate(50.24)"><tspan x="0" y="0"> </tspan></text>
  <text class="cls-10" transform="translate(558.34 208.37) rotate(57.15)"><tspan x="0" y="0">R</tspan></text>
  <text class="cls-10" transform="translate(576.38 236.15) rotate(63.71)"><tspan x="0" y="0">E</tspan></text>
  <text class="cls-10" transform="translate(589.62 262.17) rotate(70.92)"><tspan x="0" y="0">V</tspan></text>
  <text class="cls-10" transform="translate(600.35 294.29) rotate(76.61)"><tspan x="0" y="0">I</tspan></text>
  <text class="cls-10" transform="translate(604.21 307.78) rotate(82.48)"><tspan x="0" y="0">V</tspan></text>
  <text class="cls-10" transform="translate(608.73 339.65) rotate(90.12)"><tspan x="0" y="0">A</tspan></text>
  <text class="cls-10" transform="translate(608.52 374.92) rotate(96.79)"><tspan x="0" y="0">L</tspan></text>
  <text class="cls-10" transform="translate(99.93 471.27) rotate(63.42)"><tspan x="0" y="0">C</tspan></text>
  <text class="cls-10" transform="translate(116.72 504.77) rotate(54.91)"><tspan x="0" y="0">H</tspan></text>
  <text class="cls-10" transform="translate(140.31 537.96) rotate(46.34)"><tspan x="0" y="0">U</tspan></text>
  <text class="cls-10" transform="translate(167.7 566.33) rotate(38.77)"><tspan x="0" y="0">R</tspan></text>
  <text class="cls-10" transform="translate(196.57 589.34) rotate(32.29)"><tspan x="0" y="0">C</tspan></text>
  <text class="cls-10" transform="translate(228.45 609.06) rotate(23.63)"><tspan x="0" y="0">H</tspan></text>
  <text class="cls-10" transform="translate(265 624.42) rotate(18.53)"><tspan x="0" y="0"> </tspan></text>
  <text class="cls-10" transform="translate(279.21 629.83) rotate(12.82)"><tspan x="0" y="0">O</tspan></text>
  <text class="cls-10" transform="translate(320.66 638.8) rotate(4.91)"><tspan x="0" y="0">F</tspan></text>
  <text class="cls-10" transform="translate(352.32 641.11) rotate(-.07)"><tspan x="0" y="0"> </tspan></text>
  <text class="cls-10" transform="translate(367.3 641.45) rotate(-5.14)"><tspan x="0" y="0">E</tspan></text>
  <text class="cls-10" transform="translate(401.16 638.49) rotate(-12.66)"><tspan x="0" y="0">D</tspan></text>
  <text class="cls-10" transform="translate(441.66 629.4) rotate(-20.61)"><tspan x="0" y="0">M</tspan></text>
  <text class="cls-10" transform="translate(486.44 611.5) rotate(-30.56)"><tspan x="0" y="0">O</tspan></text>
  <text class="cls-10" transform="translate(522.93 589.78) rotate(-38.56)"><tspan x="0" y="0">N</tspan></text>
  <text class="cls-10" transform="translate(554.3 564.31) rotate(-46.16)"><tspan x="0" y="0">T</tspan></text>
  <text class="cls-10" transform="translate(576.57 541.48) rotate(-54.12)"><tspan x="0" y="0">O</tspan></text>
  <text class="cls-10" transform="translate(601.37 506.74) rotate(-62.87)"><tspan x="0" y="0">N</tspan></text>
  <path class="cls-8" d="M346.3,151.63c57.2-2.14,107.85,14.7,151.96,50.52,55.72,51.92,78.68,115.8,68.88,191.62-13.86,73.58-54.36,126.6-121.49,159.06-72.72,30-141.74,23.32-207.07-20.04-51.92-38.83-81.28-90.73-88.09-155.72-4.12-74.82,22.74-135.63,80.57-182.44,34.23-25.47,72.64-39.8,115.22-43Z"/>
  <path class="cls-6" d="M351.36,379.47c-18.54,23.8-37.08,47.6-55.62,71.4h-36.53c3.67-31.21,8.65-62.2,14.94-92.98,8.86-.28,17.71-.55,26.57-.83,10.01-.1,19.97.31,29.89,1.25,9.89,4.21,16.8,11.27,20.76,21.17Z"/>
  <path class="cls-4" d="M423.59,450.87c-17.35-23.03-35.2-45.73-53.55-68.08-.91-1.31-1.6-2.69-2.08-4.15,4.92-10.5,12.94-17.56,24.08-21.17,17.99-.42,35.97-.55,53.96-.42,5.55,31.13,10.26,62.4,14.11,93.81h-36.53Z"/>
  <path class="cls-4" d="M410.3,450.87c-20.97-3-37.71,3.92-50.23,20.76-12.77-17.04-29.79-23.96-51.06-20.76,16.88-21.45,33.62-43.04,50.23-64.76,17.23,21.46,34.25,43.05,51.06,64.76Z"/>
  <g>
    <path class="cls-7" d="M520.3,293.96c-30.77-70-84.58-106.26-161.47-108.76-57.61.93-103.68,24.18-138.24,69.74-24.61,34.53-35.39,72.99-32.37,115.4,2.76,29.88,12.72,56.99,29.88,81.36,1.05-4.69,2.02-9.39,2.91-14.11-12.85-22.08-20.04-45.88-21.58-71.4-.81-2.04-1.08-4.24-.82-6.64h44.83c.22-3.61,1.06-7.07,2.49-10.38-15.77-.28-31.55-.55-47.32-.84,3.1-38.66,17.48-72.42,43.17-101.29.82-.54,1.66-.54,2.49,0,12.28,8.03,25.57,13.69,39.84,17.03-6.92,21.36-11.62,43.23-14.11,65.58h11.62c2.11-20.91,6.4-41.4,12.87-61.43.46-.43,1.02-.72,1.66-.84,12.72,2.89,25.58,4.55,38.6,4.99.21-3.61.48-7.2.84-10.8-12.45-.43-24.62-2.38-36.53-5.81,5.5-14.3,13.11-27.32,22.83-39.02,7.97-9.15,17.79-15.25,29.48-18.26.88-.78,1.99-1.05,3.33-.82v48.14h9.96v-47.32c10.2,1.09,19.05,5.11,26.56,12.04,12.93,12.94,22.6,28.03,29.06,45.24-12.27,3.09-24.73,5.03-37.36,5.81.36,3.59.63,7.19.84,10.8,12.96-.84,25.82-2.5,38.6-4.99.91.07,1.75.36,2.49.84,6.38,20.07,10.93,40.55,13.71,61.43h10.78c-2.32-21.96-7.03-43.41-14.11-64.33.33-.79.88-1.33,1.66-1.66,14.18-3.64,27.47-9.32,39.84-17.02,26.74,28.67,41.4,62.72,44.01,102.11-15.5-.27-31.01,0-46.49.84.69,3.3,1.24,6.61,1.66,9.96h44.83c-.91,27.98-8.66,53.86-23.25,77.62,1.26,4.6,2.65,9.17,4.15,13.71,4.15-5.54,7.89-11.35,11.2-17.44,22.84-45.43,25.33-91.92,7.47-139.48ZM288.27,252.86c-13.38-2.29-25.82-7.13-37.37-14.51,19.97-17.87,42.93-30.33,68.92-37.37.87-.12,1.71.01,2.49.42-15.28,14.51-26.63,31.66-34.03,51.47ZM431.06,252.86c-7.34-19.83-18.69-36.85-34.05-51.05,27.19,5.69,51.26,17.87,72.24,36.53-11.98,6.95-24.71,11.8-38.2,14.51Z"/>
    <path class="cls-3" d="M354.68,363.7c.14,4.16,0,8.31-.42,12.45-.79,1.32-1.76,2.43-2.91,3.32-3.95-9.9-10.87-16.96-20.76-21.17-9.92-.93-19.88-1.35-29.89-1.25-8.86.28-17.71.55-26.57.83-6.29,30.78-11.28,61.77-14.94,92.98h49.81c21.27-3.2,38.29,3.72,51.06,20.76,12.52-16.84,29.26-23.76,50.23-20.76h49.81c-3.85-31.41-8.56-62.68-14.11-93.81-17.99-.14-35.98,0-53.96.42-11.13,3.61-19.16,10.67-24.08,21.17-.8-.38-1.49-.93-2.08-1.66-.41-4.42-.55-8.85-.42-13.28.62-1.52,1.45-2.9,2.49-4.15,6.59-6.89,14.61-11.18,24.08-12.87,21.01-1.17,42.04-1.59,63.1-1.25.85,7.87,2.23,15.62,4.15,23.25,4.16,30.8,8.87,61.52,14.11,92.15-26.84.69-53.68,1.11-80.53,1.25-10.81,2.51-19.39,8.32-25.74,17.43-5,.69-9.99.55-14.94-.42-6.03-9.48-14.61-15.15-25.74-17.02-26.84-.42-53.69-.55-80.53-.42,4.62-31.05,9.6-62.05,14.94-92.98.94-7.69,2.33-15.3,4.15-22.83,19.09-.55,38.19-.55,57.28,0,13.7.86,24.49,6.81,32.38,17.85Z"/>
    <path class="cls-1" d="M260.86,368.68c-5.34,30.94-10.32,61.93-14.94,92.98,26.84-.14,53.69,0,80.53.42,11.13,1.86,19.71,7.54,25.74,17.02,4.96.97,9.94,1.1,14.94.42,6.35-9.11,14.92-14.92,25.74-17.43,26.85-.14,53.69-.55,80.53-1.25-5.25-30.64-9.95-61.35-14.11-92.15,4.35,2.55,8.36,5.59,12.04,9.13,7.64,32.83,14.7,65.76,21.17,98.8-38.32,1.38-76.79,2.21-115.4,2.49v.83c-3.24,8.26-9.32,11.86-18.26,10.79-9.02.92-14.56-2.95-16.6-11.62h-115.4c6.62-34.11,13.68-68.15,21.17-102.12,3.98-3.3,8.27-6.07,12.87-8.3Z"/>
    <path class="cls-5" d="M265.85,495.7c3.61-.14,7.21,0,10.79.42,13.44,8.17,27.83,13.7,43.17,16.6-5.29-5.01-10.27-10.26-14.94-15.77,4.36-1.25,8.78-1.53,13.28-.83,9.25,12.23,21.43,19.57,36.53,22v-17.43h9.96v17.43c14.34-2.6,25.97-9.66,34.87-21.17,4.45-.69,8.88-.55,13.28.42-4.25,5.49-8.95,10.61-14.11,15.36,15.81-2.51,30.48-8.04,44-16.6,6.37-.55,12.73-.55,19.09,0-30.54,22.73-64.99,34.21-103.36,34.45-35.68-1.38-68.47-11.75-98.38-31.13l-2.49-2.49c2.93-.15,5.69-.56,8.3-1.25Z"/>
    <rect class="cls-9" x="345.06" y="417.82" width="11.94" height="13.93"/>
    <rect class="cls-9" x="362.32" y="417.82" width="11.94" height="13.93"/>
    <rect class="cls-9" x="345.06" y="436.94" width="11.94" height="13.93"/>
    <rect class="cls-9" x="362.32" y="436.94" width="11.94" height="13.93"/>
    <path class="cls-1" d="M423.58,450.88h-13.29c-16.81-21.72-33.82-43.3-51.05-64.77-16.61,21.72-33.36,43.32-50.24,64.77h-13.29c18.54-23.8,37.09-47.6,55.63-71.4,1.15-.9,2.11-1.99,2.91-3.33.42-4.13.55-8.28.42-12.45v-58.85h-29.06v-11.71h29.06v-33.21h9.96v33.21h29.88v11.62h-29.88c-.28,19.79,0,39.44.82,58.94-.13,4.43,0,8.87.42,13.29.58.73,1.27,1.27,2.08,1.66.46,1.45,1.15,2.83,2.07,4.15,18.35,22.35,36.19,45.04,53.55,68.08Z"/>
  </g>
</svg>